<?xml version="1.0" standalone="no"?>
<!DOCTYPE svg PUBLIC "-//W3C//DTD SVG 20010904//EN"
 "http://www.w3.org/TR/2001/REC-SVG-20010904/DTD/svg10.dtd">
<svg version="1.0" xmlns="http://www.w3.org/2000/svg"
 width="353.000000pt" height="281.000000pt" viewBox="0 0 353.000000 281.000000"
 preserveAspectRatio="xMidYMid meet">

<g transform="translate(0.000000,281.000000) scale(0.100000,-0.100000)"
fill="#000000" stroke="none">
<path d="M971 1724 c-441 -504 -801 -918 -799 -920 8 -8 921 -5 927 3 3 5 21
30 39 55 17 26 32 49 32 52 0 3 -119 6 -265 6 -146 0 -265 3 -265 8 0 12 360
402 372 402 6 0 59 -36 118 -80 l107 -80 67 0 c38 0 66 4 64 9 -1 5 -88 82
-193 171 l-190 162 -60 -66 c-33 -36 -175 -192 -315 -345 l-255 -280 -63 0
c-35 -1 -62 3 -60 8 2 5 349 405 773 889 l770 880 26 -27 c61 -61 1477 -1760
1471 -1765 -3 -3 -34 -6 -70 -6 -62 0 -66 1 -98 38 -18 20 -236 282 -486 582
-826 992 -832 999 -846 988 -7 -6 -171 -193 -364 -416 -254 -292 -349 -408
-342 -418 8 -11 322 -285 617 -539 64 -55 116 -103 116 -107 1 -5 -123 -8
-274 -8 l-274 0 -42 -61 c-22 -33 -39 -62 -36 -65 2 -2 214 -3 470 -2 l466 3
-351 325 c-194 179 -382 352 -419 385 -37 33 -69 65 -72 71 -5 10 504 624 522
632 4 1 76 -80 161 -180 85 -100 179 -209 208 -242 28 -34 52 -64 52 -67 0 -6
-193 -180 -254 -230 -19 -16 -19 -17 15 -57 19 -23 38 -42 43 -42 4 0 69 52
142 116 74 63 138 113 143 110 12 -8 581 -675 581 -681 0 -3 -176 -5 -391 -5
-215 0 -389 -3 -387 -7 2 -5 32 -36 68 -69 l65 -61 555 -7 c533 -7 553 -6 538
11 -8 10 -204 243 -433 518 -979 1172 -1108 1325 -1115 1325 -4 0 -368 -412
-809 -916z"/>
<path d="M720 440 c-29 -91 -56 -177 -61 -192 l-8 -28 54 0 54 0 15 53 c49
173 49 175 23 257 l-24 75 -53 -165z"/>
<path d="M810 588 c0 -13 43 -169 56 -202 4 -12 0 -16 -15 -16 -14 0 -25 -9
-31 -26 -17 -45 -13 -53 32 -56 38 -3 43 -6 52 -35 9 -32 11 -33 62 -33 30 0
54 3 54 8 0 4 -26 88 -58 187 l-58 180 -47 3 c-34 2 -47 -1 -47 -10z"/>
<path d="M1399 582 c-49 -25 -63 -61 -63 -172 -1 -163 24 -190 174 -190 l90 0
0 40 0 40 -63 0 c-36 0 -68 5 -75 12 -8 8 -12 55 -12 144 0 73 -4 135 -8 138
-5 3 -24 -3 -43 -12z"/>
<path d="M1470 558 l0 -43 62 1 63 2 3 35 c3 39 -10 47 -85 47 l-43 0 0 -42z"/>
<path d="M1940 410 l0 -190 55 0 55 0 0 190 0 190 -55 0 -55 0 0 -190z"/>
<path d="M2077 593 c-4 -3 -7 -24 -7 -45 l0 -38 70 0 70 0 0 45 0 45 -63 0
c-35 0 -67 -3 -70 -7z"/>
<path d="M2603 585 c-41 -18 -53 -42 -53 -108 0 -76 17 -94 105 -110 l70 -13
3 -67 c3 -63 4 -67 27 -67 13 0 37 11 52 24 26 22 28 30 28 95 0 88 -11 100
-102 115 l-68 11 -5 64 c-3 36 -9 66 -15 67 -5 2 -24 -3 -42 -11z"/>
<path d="M2680 560 l0 -40 48 0 c26 0 57 -3 70 -6 20 -6 22 -3 22 34 0 36 -3
40 -31 46 -17 3 -49 6 -70 6 -39 0 -39 0 -39 -40z"/>
<path d="M2070 410 l0 -40 61 0 60 0 -3 38 -3 37 -57 3 -58 3 0 -41z"/>
<path d="M2070 260 l0 -40 70 0 70 0 0 40 0 40 -70 0 -70 0 0 -40z"/>
<path d="M2560 260 l0 -40 75 0 75 0 0 40 0 40 -75 0 -75 0 0 -40z"/>
</g>
</svg>
